<?xml version="1.0" encoding="UTF-8" standalone="no"?>
<!DOCTYPE svg PUBLIC "-//W3C//DTD SVG 1.1//EN"
 "http://www.w3.org/Graphics/SVG/1.1/DTD/svg11.dtd">
<!-- Generated by graphviz version 14.1.0 (20251206.1807)
 -->
<!-- Pages: 1 -->
<svg width="2343pt" height="194pt"
 viewBox="0.00 0.00 2343.00 194.00" xmlns="http://www.w3.org/2000/svg" xmlns:xlink="http://www.w3.org/1999/xlink">
<g id="graph0" class="graph" transform="scale(1 1) rotate(0) translate(4 189.5)">
<polygon fill="white" stroke="none" points="-4,4 -4,-189.5 2338.75,-189.5 2338.75,4 -4,4"/>
<!-- 4383940128 -->
<g id="node1" class="node">
<title>4383940128</title>
<polygon fill="none" stroke="black" points="1490.25,-55.5 1490.25,-91.5 1828.5,-91.5 1828.5,-55.5 1490.25,-55.5"/>
<text xml:space="preserve" text-anchor="middle" x="1575.5" y="-68.7" font-family="Times,serif" font-size="14.00">((((a + b) * (a * b)) / b) + a)</text>
<polyline fill="none" stroke="black" points="1660.75,-56 1660.75,-91.5"/>
<text xml:space="preserve" text-anchor="middle" x="1704" y="-68.7" font-family="Times,serif" font-size="14.00">data 12.0000</text>
<polyline fill="none" stroke="black" points="1747.25,-56 1747.25,-91.5"/>
<text xml:space="preserve" text-anchor="middle" x="1787.88" y="-68.7" font-family="Times,serif" font-size="14.00">grad 0.0000</text>
</g>
<!-- 4383940368+ -->
<g id="node9" class="node">
<title>4383940368+</title>
<ellipse fill="none" stroke="black" cx="1891.5" cy="-45.5" rx="27" ry="18"/>
<text xml:space="preserve" text-anchor="middle" x="1891.5" y="-40.45" font-family="Times,serif" font-size="14.00">+</text>
</g>
<!-- 4383940128&#45;&gt;4383940368+ -->
<g id="edge10" class="edge">
<title>4383940128&#45;&gt;4383940368+</title>
<path fill="none" stroke="black" d="M1812.27,-55.02C1827.24,-53.2 1841.28,-51.49 1853.22,-50.04"/>
<polygon fill="black" stroke="black" points="1853.41,-53.54 1862.91,-48.86 1852.56,-46.59 1853.41,-53.54"/>
</g>
<!-- 4383940128+ -->
<g id="node2" class="node">
<title>4383940128+</title>
<ellipse fill="none" stroke="black" cx="1427.25" cy="-73.5" rx="27" ry="18"/>
<text xml:space="preserve" text-anchor="middle" x="1427.25" y="-68.45" font-family="Times,serif" font-size="14.00">+</text>
</g>
<!-- 4383940128+&#45;&gt;4383940128 -->
<g id="edge1" class="edge">
<title>4383940128+&#45;&gt;4383940128</title>
<path fill="none" stroke="black" d="M1454.65,-73.5C1461.7,-73.5 1469.88,-73.5 1478.82,-73.5"/>
<polygon fill="black" stroke="black" points="1478.58,-77 1488.58,-73.5 1478.58,-70 1478.58,-77"/>
</g>
<!-- 4383940176 -->
<g id="node3" class="node">
<title>4383940176</title>
<polygon fill="none" stroke="black" points="1562.25,-0.5 1562.25,-36.5 1756.5,-36.5 1756.5,-0.5 1562.25,-0.5"/>
<text xml:space="preserve" text-anchor="middle" x="1578.88" y="-13.7" font-family="Times,serif" font-size="14.00">1.0</text>
<polyline fill="none" stroke="black" points="1595.5,-1 1595.5,-36.5"/>
<text xml:space="preserve" text-anchor="middle" x="1635.38" y="-13.7" font-family="Times,serif" font-size="14.00">data 1.0000</text>
<polyline fill="none" stroke="black" points="1675.25,-1 1675.25,-36.5"/>
<text xml:space="preserve" text-anchor="middle" x="1715.88" y="-13.7" font-family="Times,serif" font-size="14.00">grad 0.0000</text>
</g>
<!-- 4383940176&#45;&gt;4383940368+ -->
<g id="edge13" class="edge">
<title>4383940176&#45;&gt;4383940368+</title>
<path fill="none" stroke="black" d="M1756.97,-29.83C1791.1,-33.84 1827.46,-38.1 1853.61,-41.17"/>
<polygon fill="black" stroke="black" points="1853.01,-44.63 1863.35,-42.31 1853.83,-37.67 1853.01,-44.63"/>
</g>
<!-- 4382443696 -->
<g id="node4" class="node">
<title>4382443696</title>
<polygon fill="none" stroke="black" points="650.25,-92.5 650.25,-128.5 930.75,-128.5 930.75,-92.5 650.25,-92.5"/>
<text xml:space="preserve" text-anchor="middle" x="706.62" y="-105.7" font-family="Times,serif" font-size="14.00">((a + b) * (a * b))</text>
<polyline fill="none" stroke="black" points="763,-93 763,-128.5"/>
<text xml:space="preserve" text-anchor="middle" x="806.25" y="-105.7" font-family="Times,serif" font-size="14.00">data 30.0000</text>
<polyline fill="none" stroke="black" points="849.5,-93 849.5,-128.5"/>
<text xml:space="preserve" text-anchor="middle" x="890.12" y="-105.7" font-family="Times,serif" font-size="14.00">grad 0.0000</text>
</g>
<!-- 4383939936/ -->
<g id="node13" class="node">
<title>4383939936/</title>
<ellipse fill="none" stroke="black" cx="993.75" cy="-110.5" rx="27" ry="18"/>
<text xml:space="preserve" text-anchor="middle" x="993.75" y="-105.45" font-family="Times,serif" font-size="14.00">/</text>
</g>
<!-- 4382443696&#45;&gt;4383939936/ -->
<g id="edge17" class="edge">
<title>4382443696&#45;&gt;4383939936/</title>
<path fill="none" stroke="black" d="M931,-110.5C939.56,-110.5 947.67,-110.5 955.03,-110.5"/>
<polygon fill="black" stroke="black" points="954.79,-114 964.79,-110.5 954.79,-107 954.79,-114"/>
</g>
<!-- 4382443696* -->
<g id="node5" class="node">
<title>4382443696*</title>
<ellipse fill="none" stroke="black" cx="587.25" cy="-110.5" rx="27" ry="18"/>
<text xml:space="preserve" text-anchor="middle" x="587.25" y="-105.45" font-family="Times,serif" font-size="14.00">*</text>
</g>
<!-- 4382443696*&#45;&gt;4382443696 -->
<g id="edge2" class="edge">
<title>4382443696*&#45;&gt;4382443696</title>
<path fill="none" stroke="black" d="M614.56,-110.5C621.68,-110.5 629.92,-110.5 638.87,-110.5"/>
<polygon fill="black" stroke="black" points="638.6,-114 648.6,-110.5 638.6,-107 638.6,-114"/>
</g>
<!-- 4368743104 -->
<g id="node6" class="node">
<title>4368743104</title>
<polygon fill="none" stroke="black" points="310.5,-65.5 310.5,-101.5 523.5,-101.5 523.5,-65.5 310.5,-65.5"/>
<text xml:space="preserve" text-anchor="middle" x="336.5" y="-78.7" font-family="Times,serif" font-size="14.00">(a * b)</text>
<polyline fill="none" stroke="black" points="362.5,-66 362.5,-101.5"/>
<text xml:space="preserve" text-anchor="middle" x="402.38" y="-78.7" font-family="Times,serif" font-size="14.00">data 6.0000</text>
<polyline fill="none" stroke="black" points="442.25,-66 442.25,-101.5"/>
<text xml:space="preserve" text-anchor="middle" x="482.88" y="-78.7" font-family="Times,serif" font-size="14.00">grad 0.0000</text>
</g>
<!-- 4368743104&#45;&gt;4382443696* -->
<g id="edge12" class="edge">
<title>4368743104&#45;&gt;4382443696*</title>
<path fill="none" stroke="black" d="M523.6,-100.45C532.72,-101.91 541.48,-103.32 549.41,-104.59"/>
<polygon fill="black" stroke="black" points="548.82,-108.04 559.25,-106.17 549.93,-101.13 548.82,-108.04"/>
</g>
<!-- 4368743104* -->
<g id="node7" class="node">
<title>4368743104*</title>
<ellipse fill="none" stroke="black" cx="246.75" cy="-83.5" rx="27" ry="18"/>
<text xml:space="preserve" text-anchor="middle" x="246.75" y="-78.45" font-family="Times,serif" font-size="14.00">*</text>
</g>
<!-- 4368743104*&#45;&gt;4368743104 -->
<g id="edge3" class="edge">
<title>4368743104*&#45;&gt;4368743104</title>
<path fill="none" stroke="black" d="M274.04,-83.5C281.33,-83.5 289.75,-83.5 298.77,-83.5"/>
<polygon fill="black" stroke="black" points="298.53,-87 308.53,-83.5 298.53,-80 298.53,-87"/>
</g>
<!-- 4383940368 -->
<g id="node8" class="node">
<title>4383940368</title>
<polygon fill="none" stroke="black" points="1954.5,-27.5 1954.5,-63.5 2334.75,-63.5 2334.75,-27.5 1954.5,-27.5"/>
<text xml:space="preserve" text-anchor="middle" x="2060.75" y="-40.7" font-family="Times,serif" font-size="14.00">(((((a + b) * (a * b)) / b) + a) + 1.0)</text>
<polyline fill="none" stroke="black" points="2167,-28 2167,-63.5"/>
<text xml:space="preserve" text-anchor="middle" x="2210.25" y="-40.7" font-family="Times,serif" font-size="14.00">data 13.0000</text>
<polyline fill="none" stroke="black" points="2253.5,-28 2253.5,-63.5"/>
<text xml:space="preserve" text-anchor="middle" x="2294.12" y="-40.7" font-family="Times,serif" font-size="14.00">grad 0.0000</text>
</g>
<!-- 4383940368+&#45;&gt;4383940368 -->
<g id="edge4" class="edge">
<title>4383940368+&#45;&gt;4383940368</title>
<path fill="none" stroke="black" d="M1918.9,-45.5C1925.88,-45.5 1933.99,-45.5 1942.89,-45.5"/>
<polygon fill="black" stroke="black" points="1942.62,-49 1952.62,-45.5 1942.62,-42 1942.62,-49"/>
</g>
<!-- 4368744256 -->
<g id="node10" class="node">
<title>4368744256</title>
<polygon fill="none" stroke="black" points="309.75,-120.5 309.75,-156.5 524.25,-156.5 524.25,-120.5 309.75,-120.5"/>
<text xml:space="preserve" text-anchor="middle" x="336.5" y="-133.7" font-family="Times,serif" font-size="14.00">(a + b)</text>
<polyline fill="none" stroke="black" points="363.25,-121 363.25,-156.5"/>
<text xml:space="preserve" text-anchor="middle" x="403.12" y="-133.7" font-family="Times,serif" font-size="14.00">data 5.0000</text>
<polyline fill="none" stroke="black" points="443,-121 443,-156.5"/>
<text xml:space="preserve" text-anchor="middle" x="483.62" y="-133.7" font-family="Times,serif" font-size="14.00">grad 0.0000</text>
</g>
<!-- 4368744256&#45;&gt;4382443696* -->
<g id="edge15" class="edge">
<title>4368744256&#45;&gt;4382443696*</title>
<path fill="none" stroke="black" d="M524.56,-120.77C533.29,-119.31 541.67,-117.92 549.29,-116.65"/>
<polygon fill="black" stroke="black" points="549.79,-120.12 559.08,-115.02 548.64,-113.21 549.79,-120.12"/>
</g>
<!-- 4368744256+ -->
<g id="node11" class="node">
<title>4368744256+</title>
<ellipse fill="none" stroke="black" cx="246.75" cy="-138.5" rx="27" ry="18"/>
<text xml:space="preserve" text-anchor="middle" x="246.75" y="-133.45" font-family="Times,serif" font-size="14.00">+</text>
</g>
<!-- 4368744256+&#45;&gt;4368744256 -->
<g id="edge5" class="edge">
<title>4368744256+&#45;&gt;4368744256</title>
<path fill="none" stroke="black" d="M274.04,-138.5C281.12,-138.5 289.27,-138.5 297.99,-138.5"/>
<polygon fill="black" stroke="black" points="297.81,-142 307.81,-138.5 297.81,-135 297.81,-142"/>
</g>
<!-- 4383939936 -->
<g id="node12" class="node">
<title>4383939936</title>
<polygon fill="none" stroke="black" points="1056.75,-79.5 1056.75,-115.5 1364.25,-115.5 1364.25,-79.5 1056.75,-79.5"/>
<text xml:space="preserve" text-anchor="middle" x="1126.62" y="-92.7" font-family="Times,serif" font-size="14.00">(((a + b) * (a * b)) / b)</text>
<polyline fill="none" stroke="black" points="1196.5,-80 1196.5,-115.5"/>
<text xml:space="preserve" text-anchor="middle" x="1239.75" y="-92.7" font-family="Times,serif" font-size="14.00">data 10.0000</text>
<polyline fill="none" stroke="black" points="1283,-80 1283,-115.5"/>
<text xml:space="preserve" text-anchor="middle" x="1323.62" y="-92.7" font-family="Times,serif" font-size="14.00">grad 0.0000</text>
</g>
<!-- 4383939936&#45;&gt;4383940128+ -->
<g id="edge9" class="edge">
<title>4383939936&#45;&gt;4383940128+</title>
<path fill="none" stroke="black" d="M1364.71,-80.38C1373.41,-79.4 1381.62,-78.49 1389.03,-77.66"/>
<polygon fill="black" stroke="black" points="1389.29,-81.15 1398.84,-76.56 1388.51,-74.2 1389.29,-81.15"/>
</g>
<!-- 4383939936/&#45;&gt;4383939936 -->
<g id="edge6" class="edge">
<title>4383939936/&#45;&gt;4383939936</title>
<path fill="none" stroke="black" d="M1021.08,-108.91C1028.17,-108.48 1036.38,-107.98 1045.33,-107.44"/>
<polygon fill="black" stroke="black" points="1045.31,-110.95 1055.08,-106.85 1044.89,-103.96 1045.31,-110.95"/>
</g>
<!-- 4368752544 -->
<g id="node14" class="node">
<title>4368752544</title>
<polygon fill="none" stroke="black" points="0,-120.5 0,-156.5 183.75,-156.5 183.75,-120.5 0,-120.5"/>
<text xml:space="preserve" text-anchor="middle" x="11.38" y="-133.7" font-family="Times,serif" font-size="14.00">b</text>
<polyline fill="none" stroke="black" points="22.75,-121 22.75,-156.5"/>
<text xml:space="preserve" text-anchor="middle" x="62.62" y="-133.7" font-family="Times,serif" font-size="14.00">data 3.0000</text>
<polyline fill="none" stroke="black" points="102.5,-121 102.5,-156.5"/>
<text xml:space="preserve" text-anchor="middle" x="143.12" y="-133.7" font-family="Times,serif" font-size="14.00">grad 0.0000</text>
</g>
<!-- 4368752544&#45;&gt;4368743104* -->
<g id="edge8" class="edge">
<title>4368752544&#45;&gt;4368743104*</title>
<path fill="none" stroke="black" d="M158.75,-120.08C167.22,-117.37 175.73,-114.49 183.75,-111.5 193.72,-107.79 204.35,-103.22 213.95,-98.86"/>
<polygon fill="black" stroke="black" points="215.27,-102.1 222.87,-94.72 212.33,-95.75 215.27,-102.1"/>
</g>
<!-- 4368752544&#45;&gt;4368744256+ -->
<g id="edge16" class="edge">
<title>4368752544&#45;&gt;4368744256+</title>
<path fill="none" stroke="black" d="M184.01,-138.5C192.39,-138.5 200.52,-138.5 207.98,-138.5"/>
<polygon fill="black" stroke="black" points="207.95,-142 217.95,-138.5 207.95,-135 207.95,-142"/>
</g>
<!-- 4368752544&#45;&gt;4383939936/ -->
<g id="edge18" class="edge">
<title>4368752544&#45;&gt;4383939936/</title>
<path fill="none" stroke="black" d="M174.07,-156.94C239.14,-170.11 332.95,-185.5 416,-185.5 416,-185.5 416,-185.5 588.25,-185.5 741.9,-185.5 783.1,-181 930.75,-138.5 941.14,-135.51 952.03,-131.08 961.73,-126.62"/>
<polygon fill="black" stroke="black" points="963.22,-129.78 970.72,-122.3 960.19,-123.47 963.22,-129.78"/>
</g>
<!-- 4368752592 -->
<g id="node15" class="node">
<title>4368752592</title>
<polygon fill="none" stroke="black" points="0.38,-65.5 0.38,-101.5 183.38,-101.5 183.38,-65.5 0.38,-65.5"/>
<text xml:space="preserve" text-anchor="middle" x="11.38" y="-78.7" font-family="Times,serif" font-size="14.00">a</text>
<polyline fill="none" stroke="black" points="22.38,-66 22.38,-101.5"/>
<text xml:space="preserve" text-anchor="middle" x="62.25" y="-78.7" font-family="Times,serif" font-size="14.00">data 2.0000</text>
<polyline fill="none" stroke="black" points="102.12,-66 102.12,-101.5"/>
<text xml:space="preserve" text-anchor="middle" x="142.75" y="-78.7" font-family="Times,serif" font-size="14.00">grad 0.0000</text>
</g>
<!-- 4368752592&#45;&gt;4383940128+ -->
<g id="edge14" class="edge">
<title>4368752592&#45;&gt;4383940128+</title>
<path fill="none" stroke="black" d="M174.07,-65.06C239.14,-51.89 332.95,-36.5 416,-36.5 416,-36.5 416,-36.5 994.75,-36.5 1141.42,-36.5 1315.1,-57.98 1389.47,-68.21"/>
<polygon fill="black" stroke="black" points="1388.65,-71.63 1399.04,-69.54 1389.62,-64.7 1388.65,-71.63"/>
</g>
<!-- 4368752592&#45;&gt;4368743104* -->
<g id="edge11" class="edge">
<title>4368752592&#45;&gt;4368743104*</title>
<path fill="none" stroke="black" d="M183.57,-83.5C192.09,-83.5 200.37,-83.5 207.96,-83.5"/>
<polygon fill="black" stroke="black" points="207.74,-87 217.74,-83.5 207.74,-80 207.74,-87"/>
</g>
<!-- 4368752592&#45;&gt;4368744256+ -->
<g id="edge7" class="edge">
<title>4368752592&#45;&gt;4368744256+</title>
<path fill="none" stroke="black" d="M155.76,-101.87C165.2,-104.92 174.77,-108.17 183.75,-111.5 193.59,-115.14 204.11,-119.54 213.65,-123.71"/>
<polygon fill="black" stroke="black" points="211.96,-126.79 222.52,-127.66 214.8,-120.39 211.96,-126.79"/>
</g>
</g>
</svg>
