<?xml version="1.0" encoding="UTF-8" standalone="no"?>
<!DOCTYPE svg PUBLIC "-//W3C//DTD SVG 1.1//EN"
 "http://www.w3.org/Graphics/SVG/1.1/DTD/svg11.dtd">
<!-- Generated by graphviz version 14.1.0 (20251206.1807)
 -->
<!-- Pages: 1 -->
<svg width="935pt" height="144pt"
 viewBox="0.00 0.00 935.00 144.00" xmlns="http://www.w3.org/2000/svg" xmlns:xlink="http://www.w3.org/1999/xlink">
<g id="graph0" class="graph" transform="scale(1 1) rotate(0) translate(4 139.66)">
<polygon fill="white" stroke="none" points="-4,4 -4,-139.66 931.18,-139.66 931.18,4 -4,4"/>
<!-- 4397418096 -->
<g id="node1" class="node">
<title>4397418096</title>
<ellipse fill="lightgray" stroke="black" cx="116.32" cy="-117.66" rx="36.51" ry="18"/>
<text xml:space="preserve" text-anchor="middle" x="116.32" y="-112.61" font-family="Times,serif" font-size="14.00">2.0000</text>
</g>
<!-- 4397418240 -->
<g id="node3" class="node">
<title>4397418240</title>
<ellipse fill="lightblue" stroke="black" cx="384.96" cy="-78.66" rx="116.32" ry="52.33"/>
<text xml:space="preserve" text-anchor="middle" x="384.96" y="-98.36" font-family="Times,serif" font-size="14.00">mul</text>
<text xml:space="preserve" text-anchor="middle" x="384.96" y="-81.86" font-family="Times,serif" font-size="14.00">[2.000, &#45;4.000, 6.000]</text>
<text xml:space="preserve" text-anchor="middle" x="384.96" y="-65.36" font-family="Times,serif" font-size="14.00">grad=[1.000, 0.000, 1.000]</text>
<text xml:space="preserve" text-anchor="middle" x="384.96" y="-48.86" font-family="Times,serif" font-size="14.00">shape=(3,)</text>
</g>
<!-- 4397418096&#45;&gt;4397418240 -->
<g id="edge2" class="edge">
<title>4397418096&#45;&gt;4397418240</title>
<path fill="none" stroke="black" d="M151.9,-112.6C180.24,-108.46 222.11,-102.33 262.52,-96.42"/>
<polygon fill="black" stroke="black" points="262.98,-99.89 272.37,-94.98 261.97,-92.96 262.98,-99.89"/>
</g>
<!-- 4397418672 -->
<g id="node2" class="node">
<title>4397418672</title>
<ellipse fill="lightblue" stroke="black" cx="653.6" cy="-78.66" rx="116.32" ry="52.33"/>
<text xml:space="preserve" text-anchor="middle" x="653.6" y="-98.36" font-family="Times,serif" font-size="14.00">relu</text>
<text xml:space="preserve" text-anchor="middle" x="653.6" y="-81.86" font-family="Times,serif" font-size="14.00">[2.000, 0.000, 6.000]</text>
<text xml:space="preserve" text-anchor="middle" x="653.6" y="-65.36" font-family="Times,serif" font-size="14.00">grad=[1.000, 1.000, 1.000]</text>
<text xml:space="preserve" text-anchor="middle" x="653.6" y="-48.86" font-family="Times,serif" font-size="14.00">shape=(3,)</text>
</g>
<!-- 4397418960 -->
<g id="node5" class="node">
<title>4397418960</title>
<ellipse fill="lightblue" stroke="black" cx="866.55" cy="-78.66" rx="60.63" ry="40.66"/>
<text xml:space="preserve" text-anchor="middle" x="866.55" y="-90.11" font-family="Times,serif" font-size="14.00">sum</text>
<text xml:space="preserve" text-anchor="middle" x="866.55" y="-73.61" font-family="Times,serif" font-size="14.00">8.0000</text>
<text xml:space="preserve" text-anchor="middle" x="866.55" y="-57.11" font-family="Times,serif" font-size="14.00">grad=1.0000</text>
</g>
<!-- 4397418672&#45;&gt;4397418960 -->
<g id="edge4" class="edge">
<title>4397418672&#45;&gt;4397418960</title>
<path fill="none" stroke="black" d="M770.26,-78.66C778.35,-78.66 786.36,-78.66 794.1,-78.66"/>
<polygon fill="black" stroke="black" points="794.1,-82.16 804.1,-78.66 794.1,-75.16 794.1,-82.16"/>
</g>
<!-- 4397418240&#45;&gt;4397418672 -->
<g id="edge3" class="edge">
<title>4397418240&#45;&gt;4397418672</title>
<path fill="none" stroke="black" d="M501.75,-78.66C509.67,-78.66 517.69,-78.66 525.67,-78.66"/>
<polygon fill="black" stroke="black" points="525.41,-82.16 535.41,-78.66 525.41,-75.16 525.41,-82.16"/>
</g>
<!-- 4396075952 -->
<g id="node4" class="node">
<title>4396075952</title>
<ellipse fill="lightblue" stroke="black" cx="116.32" cy="-40.66" rx="116.32" ry="40.66"/>
<text xml:space="preserve" text-anchor="middle" x="116.32" y="-52.11" font-family="Times,serif" font-size="14.00">[1.000, &#45;2.000, 3.000]</text>
<text xml:space="preserve" text-anchor="middle" x="116.32" y="-35.61" font-family="Times,serif" font-size="14.00">grad=[2.000, 0.000, 2.000]</text>
<text xml:space="preserve" text-anchor="middle" x="116.32" y="-19.11" font-family="Times,serif" font-size="14.00">shape=(3,)</text>
</g>
<!-- 4396075952&#45;&gt;4397418240 -->
<g id="edge1" class="edge">
<title>4396075952&#45;&gt;4397418240</title>
<path fill="none" stroke="black" d="M224.62,-55.95C237.15,-57.74 250.01,-59.57 262.72,-61.38"/>
<polygon fill="black" stroke="black" points="261.94,-64.8 272.34,-62.75 262.93,-57.87 261.94,-64.8"/>
</g>
</g>
</svg>
