<?xml version="1.0" encoding="UTF-8" standalone="no"?>
<!DOCTYPE svg PUBLIC "-//W3C//DTD SVG 1.1//EN"
 "http://www.w3.org/Graphics/SVG/1.1/DTD/svg11.dtd">
<!-- Generated by graphviz version 14.1.0 (20251206.1807)
 -->
<!-- Pages: 1 -->
<svg width="1959pt" height="293pt"
 viewBox="0.00 0.00 1959.00 293.00" xmlns="http://www.w3.org/2000/svg" xmlns:xlink="http://www.w3.org/1999/xlink">
<g id="graph0" class="graph" transform="scale(1 1) rotate(0) translate(4 289.32)">
<polygon fill="white" stroke="none" points="-4,4 -4,-289.32 1955.3,-289.32 1955.3,4 -4,4"/>
<!-- 4397417472 -->
<g id="node1" class="node">
<title>4397417472</title>
<ellipse fill="lightblue" stroke="black" cx="1677.71" cy="-188.66" rx="116.32" ry="52.33"/>
<text xml:space="preserve" text-anchor="middle" x="1677.71" y="-208.36" font-family="Times,serif" font-size="14.00">add</text>
<text xml:space="preserve" text-anchor="middle" x="1677.71" y="-191.86" font-family="Times,serif" font-size="14.00">[&#45;0.972, &#45;0.812, 0.102]</text>
<text xml:space="preserve" text-anchor="middle" x="1677.71" y="-175.36" font-family="Times,serif" font-size="14.00">grad=[1.000, 1.000, 1.000]</text>
<text xml:space="preserve" text-anchor="middle" x="1677.71" y="-158.86" font-family="Times,serif" font-size="14.00">shape=(1, 3)</text>
</g>
<!-- 4397417712 -->
<g id="node5" class="node">
<title>4397417712</title>
<ellipse fill="lightblue" stroke="black" cx="1890.67" cy="-188.66" rx="60.63" ry="40.66"/>
<text xml:space="preserve" text-anchor="middle" x="1890.67" y="-200.11" font-family="Times,serif" font-size="14.00">sum</text>
<text xml:space="preserve" text-anchor="middle" x="1890.67" y="-183.61" font-family="Times,serif" font-size="14.00">&#45;1.6821</text>
<text xml:space="preserve" text-anchor="middle" x="1890.67" y="-167.11" font-family="Times,serif" font-size="14.00">grad=1.0000</text>
</g>
<!-- 4397417472&#45;&gt;4397417712 -->
<g id="edge7" class="edge">
<title>4397417472&#45;&gt;4397417712</title>
<path fill="none" stroke="black" d="M1794.37,-188.66C1802.47,-188.66 1810.48,-188.66 1818.22,-188.66"/>
<polygon fill="black" stroke="black" points="1818.22,-192.16 1828.22,-188.66 1818.22,-185.16 1818.22,-192.16"/>
</g>
<!-- 4396076144 -->
<g id="node2" class="node">
<title>4396076144</title>
<ellipse fill="lightblue" stroke="black" cx="1409.08" cy="-244.66" rx="116.32" ry="40.66"/>
<text xml:space="preserve" text-anchor="middle" x="1409.08" y="-256.11" font-family="Times,serif" font-size="14.00">[0.000, 0.000, 0.000]</text>
<text xml:space="preserve" text-anchor="middle" x="1409.08" y="-239.61" font-family="Times,serif" font-size="14.00">grad=[1.000, 1.000, 1.000]</text>
<text xml:space="preserve" text-anchor="middle" x="1409.08" y="-223.11" font-family="Times,serif" font-size="14.00">shape=(3,)</text>
</g>
<!-- 4396076144&#45;&gt;4397417472 -->
<g id="edge3" class="edge">
<title>4396076144&#45;&gt;4397417472</title>
<path fill="none" stroke="black" d="M1509.36,-223.81C1526.12,-220.29 1543.65,-216.6 1560.79,-213"/>
<polygon fill="black" stroke="black" points="1561.44,-216.45 1570.51,-210.96 1560,-209.59 1561.44,-216.45"/>
</g>
<!-- 4396076720 -->
<g id="node3" class="node">
<title>4396076720</title>
<ellipse fill="lightgray" stroke="black" cx="197.46" cy="-117.66" rx="36.51" ry="18"/>
<text xml:space="preserve" text-anchor="middle" x="197.46" y="-112.61" font-family="Times,serif" font-size="14.00">0.7071</text>
</g>
<!-- 4396076960 -->
<g id="node9" class="node">
<title>4396076960</title>
<ellipse fill="lightblue" stroke="black" cx="628.38" cy="-78.66" rx="197.46" ry="52.33"/>
<text xml:space="preserve" text-anchor="middle" x="628.38" y="-98.36" font-family="Times,serif" font-size="14.00">mul</text>
<text xml:space="preserve" text-anchor="middle" x="628.38" y="-81.86" font-family="Times,serif" font-size="14.00">[0.313, &#45;0.642, &#45;0.884, 0.036, 0.877, &#45;0.388]</text>
<text xml:space="preserve" text-anchor="middle" x="628.38" y="-65.36" font-family="Times,serif" font-size="14.00">grad=[1.000, 2.000, 1.000, 2.000, 1.000, 2.000]</text>
<text xml:space="preserve" text-anchor="middle" x="628.38" y="-48.86" font-family="Times,serif" font-size="14.00">shape=(3, 2)</text>
</g>
<!-- 4396076720&#45;&gt;4396076960 -->
<g id="edge2" class="edge">
<title>4396076720&#45;&gt;4396076960</title>
<path fill="none" stroke="black" d="M233.56,-114.47C277.13,-110.51 354.9,-103.43 429.87,-96.62"/>
<polygon fill="black" stroke="black" points="429.76,-100.14 439.41,-95.75 429.13,-93.17 429.76,-100.14"/>
</g>
<!-- 4396076240 -->
<g id="node4" class="node">
<title>4396076240</title>
<ellipse fill="lightblue" stroke="black" cx="197.46" cy="-40.66" rx="197.46" ry="40.66"/>
<text xml:space="preserve" text-anchor="middle" x="197.46" y="-52.11" font-family="Times,serif" font-size="14.00">[0.443, &#45;0.909, &#45;1.251, 0.051, 1.241, &#45;0.548]</text>
<text xml:space="preserve" text-anchor="middle" x="197.46" y="-35.61" font-family="Times,serif" font-size="14.00">grad=[0.707, 1.414, 0.707, 1.414, 0.707, 1.414]</text>
<text xml:space="preserve" text-anchor="middle" x="197.46" y="-19.11" font-family="Times,serif" font-size="14.00">shape=(3, 2)</text>
</g>
<!-- 4396076240&#45;&gt;4396076960 -->
<g id="edge5" class="edge">
<title>4396076240&#45;&gt;4396076960</title>
<path fill="none" stroke="black" d="M379.43,-56.69C395.88,-58.15 412.6,-59.63 429.19,-61.1"/>
<polygon fill="black" stroke="black" points="428.87,-64.59 439.14,-61.98 429.49,-57.61 428.87,-64.59"/>
</g>
<!-- 4396076288 -->
<g id="node6" class="node">
<title>4396076288</title>
<ellipse fill="lightblue" stroke="black" cx="1059.3" cy="-189.66" rx="92.45" ry="40.66"/>
<text xml:space="preserve" text-anchor="middle" x="1059.3" y="-201.11" font-family="Times,serif" font-size="14.00">[1.000, 2.000]</text>
<text xml:space="preserve" text-anchor="middle" x="1059.3" y="-184.61" font-family="Times,serif" font-size="14.00">grad=[0.306, &#45;0.994]</text>
<text xml:space="preserve" text-anchor="middle" x="1059.3" y="-168.11" font-family="Times,serif" font-size="14.00">shape=(1, 2)</text>
</g>
<!-- 4396167520 -->
<g id="node8" class="node">
<title>4396167520</title>
<ellipse fill="lightblue" stroke="black" cx="1409.08" cy="-133.66" rx="116.32" ry="52.33"/>
<text xml:space="preserve" text-anchor="middle" x="1409.08" y="-153.36" font-family="Times,serif" font-size="14.00">matmul</text>
<text xml:space="preserve" text-anchor="middle" x="1409.08" y="-136.86" font-family="Times,serif" font-size="14.00">[&#45;0.972, &#45;0.812, 0.102]</text>
<text xml:space="preserve" text-anchor="middle" x="1409.08" y="-120.36" font-family="Times,serif" font-size="14.00">grad=[1.000, 1.000, 1.000]</text>
<text xml:space="preserve" text-anchor="middle" x="1409.08" y="-103.86" font-family="Times,serif" font-size="14.00">shape=(1, 3)</text>
</g>
<!-- 4396076288&#45;&gt;4396167520 -->
<g id="edge6" class="edge">
<title>4396076288&#45;&gt;4396167520</title>
<path fill="none" stroke="black" d="M1146.71,-175.74C1189.27,-168.89 1241.28,-160.52 1287.67,-153.05"/>
<polygon fill="black" stroke="black" points="1288.21,-156.51 1297.53,-151.46 1287.1,-149.59 1288.21,-156.51"/>
</g>
<!-- 4396217104 -->
<g id="node7" class="node">
<title>4396217104</title>
<ellipse fill="lightblue" stroke="black" cx="1059.3" cy="-78.66" rx="197.46" ry="52.33"/>
<text xml:space="preserve" text-anchor="middle" x="1059.3" y="-98.36" font-family="Times,serif" font-size="14.00">transpose</text>
<text xml:space="preserve" text-anchor="middle" x="1059.3" y="-81.86" font-family="Times,serif" font-size="14.00">[0.313, &#45;0.884, 0.877, &#45;0.642, 0.036, &#45;0.388]</text>
<text xml:space="preserve" text-anchor="middle" x="1059.3" y="-65.36" font-family="Times,serif" font-size="14.00">grad=[1.000, 1.000, 1.000, 2.000, 2.000, 2.000]</text>
<text xml:space="preserve" text-anchor="middle" x="1059.3" y="-48.86" font-family="Times,serif" font-size="14.00">shape=(2, 3)</text>
</g>
<!-- 4396217104&#45;&gt;4396167520 -->
<g id="edge8" class="edge">
<title>4396217104&#45;&gt;4396167520</title>
<path fill="none" stroke="black" d="M1229.6,-105.43C1249.15,-108.52 1268.77,-111.63 1287.49,-114.59"/>
<polygon fill="black" stroke="black" points="1286.78,-118.02 1297.21,-116.12 1287.88,-111.11 1286.78,-118.02"/>
</g>
<!-- 4396167520&#45;&gt;4397417472 -->
<g id="edge1" class="edge">
<title>4396167520&#45;&gt;4397417472</title>
<path fill="none" stroke="black" d="M1515.46,-155.4C1530.34,-158.46 1545.7,-161.63 1560.76,-164.74"/>
<polygon fill="black" stroke="black" points="1559.68,-168.09 1570.18,-166.68 1561.09,-161.24 1559.68,-168.09"/>
</g>
<!-- 4396076960&#45;&gt;4396217104 -->
<g id="edge4" class="edge">
<title>4396076960&#45;&gt;4396217104</title>
<path fill="none" stroke="black" d="M826.26,-78.66C834.11,-78.66 841.98,-78.66 849.84,-78.66"/>
<polygon fill="black" stroke="black" points="849.84,-82.16 859.84,-78.66 849.84,-75.16 849.84,-82.16"/>
</g>
</g>
</svg>
