<?xml version="1.0" encoding="UTF-8" standalone="no"?>
<!DOCTYPE svg PUBLIC "-//W3C//DTD SVG 1.1//EN"
 "http://www.w3.org/Graphics/SVG/1.1/DTD/svg11.dtd">
<!-- Generated by graphviz version 14.1.0 (20251206.1807)
 -->
<!-- Pages: 1 -->
<svg width="558pt" height="188pt"
 viewBox="0.00 0.00 558.00 188.00" xmlns="http://www.w3.org/2000/svg" xmlns:xlink="http://www.w3.org/1999/xlink">
<g id="graph0" class="graph" transform="scale(1 1) rotate(0) translate(4 184.32)">
<polygon fill="white" stroke="none" points="-4,4 -4,-184.32 554.36,-184.32 554.36,4 -4,4"/>
<!-- 4380032400 -->
<g id="node1" class="node">
<title>4380032400</title>
<ellipse fill="lightblue" stroke="black" cx="89.27" cy="-139.66" rx="89.27" ry="40.66"/>
<text xml:space="preserve" text-anchor="middle" x="89.27" y="-151.11" font-family="Times,serif" font-size="14.00">[2.000, 3.000]</text>
<text xml:space="preserve" text-anchor="middle" x="89.27" y="-134.61" font-family="Times,serif" font-size="14.00">grad=[1.000, 4.000]</text>
<text xml:space="preserve" text-anchor="middle" x="89.27" y="-118.11" font-family="Times,serif" font-size="14.00">shape=(2,)</text>
</g>
<!-- 4394517408 -->
<g id="node2" class="node">
<title>4394517408</title>
<ellipse fill="lightblue" stroke="black" cx="303.82" cy="-89.66" rx="89.27" ry="52.33"/>
<text xml:space="preserve" text-anchor="middle" x="303.82" y="-109.36" font-family="Times,serif" font-size="14.00">mul</text>
<text xml:space="preserve" text-anchor="middle" x="303.82" y="-92.86" font-family="Times,serif" font-size="14.00">[2.000, 12.000]</text>
<text xml:space="preserve" text-anchor="middle" x="303.82" y="-76.36" font-family="Times,serif" font-size="14.00">grad=[1.000, 1.000]</text>
<text xml:space="preserve" text-anchor="middle" x="303.82" y="-59.86" font-family="Times,serif" font-size="14.00">shape=(2,)</text>
</g>
<!-- 4380032400&#45;&gt;4394517408 -->
<g id="edge1" class="edge">
<title>4380032400&#45;&gt;4394517408</title>
<path fill="none" stroke="black" d="M169.11,-121.11C182.22,-118.03 195.92,-114.8 209.35,-111.65"/>
<polygon fill="black" stroke="black" points="210.14,-115.06 219.07,-109.36 208.54,-108.24 210.14,-115.06"/>
</g>
<!-- 4396075712 -->
<g id="node4" class="node">
<title>4396075712</title>
<ellipse fill="lightblue" stroke="black" cx="489.72" cy="-89.66" rx="60.63" ry="40.66"/>
<text xml:space="preserve" text-anchor="middle" x="489.72" y="-101.11" font-family="Times,serif" font-size="14.00">sum</text>
<text xml:space="preserve" text-anchor="middle" x="489.72" y="-84.61" font-family="Times,serif" font-size="14.00">14.0000</text>
<text xml:space="preserve" text-anchor="middle" x="489.72" y="-68.11" font-family="Times,serif" font-size="14.00">grad=1.0000</text>
</g>
<!-- 4394517408&#45;&gt;4396075712 -->
<g id="edge2" class="edge">
<title>4394517408&#45;&gt;4396075712</title>
<path fill="none" stroke="black" d="M393.54,-89.66C401.56,-89.66 409.62,-89.66 417.46,-89.66"/>
<polygon fill="black" stroke="black" points="417.26,-93.16 427.26,-89.66 417.26,-86.16 417.26,-93.16"/>
</g>
<!-- 4380032304 -->
<g id="node3" class="node">
<title>4380032304</title>
<ellipse fill="lightblue" stroke="black" cx="89.27" cy="-40.66" rx="89.27" ry="40.66"/>
<text xml:space="preserve" text-anchor="middle" x="89.27" y="-52.11" font-family="Times,serif" font-size="14.00">[1.000, 4.000]</text>
<text xml:space="preserve" text-anchor="middle" x="89.27" y="-35.61" font-family="Times,serif" font-size="14.00">grad=[2.000, 3.000]</text>
<text xml:space="preserve" text-anchor="middle" x="89.27" y="-19.11" font-family="Times,serif" font-size="14.00">shape=(2,)</text>
</g>
<!-- 4380032304&#45;&gt;4394517408 -->
<g id="edge3" class="edge">
<title>4380032304&#45;&gt;4394517408</title>
<path fill="none" stroke="black" d="M169.42,-58.9C182.42,-61.9 196,-65.03 209.31,-68.1"/>
<polygon fill="black" stroke="black" points="208.4,-71.48 218.93,-70.32 209.98,-64.66 208.4,-71.48"/>
</g>
</g>
</svg>
